<svg width="1024" height="1024" viewBox="0 0 1024 1024" fill="none"
  xmlns="http://www.w3.org/2000/svg">
  <g clip-path="url(#clip0_13615_72)">
    <path d="M824 1024H200C90 1024 0 934 0 824V200C0 90 90 0 200 0H824C934 0 1024 90 1024 200V824C1024 934 934 1024 824 1024Z" fill="#252C44"/>
    <path d="M676.4 589.1C785.2 648.8 787.1 724.6 737.3 753.4C687.5 782.2 626.3 733.6 568.4 749.8C568.2 749.9 568 749.9 567.9 750C567.7 750 567.5 750.1 567.4 750.1C509 764.1 479.1 836.3 421.6 835.4C364.2 834.5 328.9 767.4 394.9 662.2C439.9 590.5 439.1 524.8 504.6 506C571 490.6 602.3 548.4 676.4 589.1ZM195.6 482.6C169.4 514.5 188.3 573.4 237.8 614C287.3 654.7 348.7 661.8 374.9 629.9C401.1 598 382.2 539.1 332.7 498.5C283.2 457.8 221.8 450.7 195.6 482.6ZM651.1 415.8C627.7 475.4 639.8 536 678.2 551.1C716.6 566.2 766.8 530.1 790.3 470.5C813.7 410.9 801.6 350.3 763.2 335.2C724.7 320.1 674.5 356.2 651.1 415.8ZM319.3 257.1C279.7 275.3 270.5 339.8 298.7 401.2C326.9 462.6 381.8 497.7 421.4 479.5C461 461.3 470.2 396.8 442 335.4C413.8 274 358.9 239 319.3 257.1ZM476.2 326.5C481.5 393.9 520.9 445.7 564.4 442.3C607.8 438.9 638.8 381.5 633.5 314.2C628.2 246.8 588.8 195 545.3 198.4C501.9 201.8 470.9 259.2 476.2 326.5Z" fill="white"/>
  </g>
  <defs>
    <clipPath id="clip0_13615_72">
      <rect width="1024" height="1024" rx="200" fill="white"/>
    </clipPath>
  </defs>
</svg>
