<svg width="192" height="192" viewBox="0 0 192 192" fill="none" xmlns="http://www.w3.org/2000/svg">
<path d="M0 33C0 14.7746 14.7746 0 33 0H159C177.225 0 192 14.7746 192 33V159C192 177.225 177.225 192 159 192H33C14.7746 192 0 177.225 0 159V33Z" fill="#91ACCF"/>
<path d="M148.881 109.441C143.883 55.0908 141.807 9.46674 113.46 61.8302C113.482 61.8345 103.422 59.8258 96.3365 59.8149C89.5088 59.8116 79.1675 61.8206 79.2126 61.8302C58.7116 24.7482 51.969 34.7019 47.2559 72.9634C45.3353 95.2628 40.9775 114.635 47.0903 124.474C56.8611 144.439 83.9353 163.571 97.448 162.566C114.922 161.511 150.832 132.184 148.881 109.441V109.441Z" fill="#F2F2F2"/>
<path d="M148.881 109.441C148.676 107.444 148.63 107.078 148.595 106.6C146.342 119.664 133.71 134.058 120.634 143.383C109.793 150.999 100.267 155.017 92.6667 153.423C76.1245 150.281 47.6577 127.094 44.0577 106.602C39.1736 132.155 81.9017 165.26 98.7406 162.441C116.611 160.091 150.799 131.635 148.881 109.441V109.441Z" fill="#D3D3D3"/>
<path d="M148.882 109.441C143.884 55.0908 141.808 9.46669 113.461 61.8302C113.483 61.8344 103.423 59.8257 96.3375 59.8149C89.5098 59.8116 79.1685 61.8206 79.2136 61.8302C53.381 14.3449 49.7414 47.9143 45.4603 90.3286C41.3479 120.687 44.921 129.505 69.6355 150.425C62.3083 142.679 58.268 134.055 55.5527 127.293C52.1299 119.58 44.0399 102.175 61.4535 96.3241C63.536 95.4084 64.5139 94.6292 65.3629 93.6175C70.0382 78.7891 73.9963 86.7457 79.1515 82.6592C82.8143 75.0555 83.802 76.1578 92.7173 82.5838C94.871 83.2836 89.6837 72.3263 96.3225 72.3046C96.3977 72.3046 96.0017 72.3197 96.3225 72.3046C102.882 72.3039 97.8763 83.227 99.928 82.5818C113.202 72.4449 110.063 79.4566 114.121 83.2476C129.453 85.3488 123.088 88.0888 127.987 94.3783C145.338 101.502 143.698 111.94 138.836 122.937C135.83 130.427 132.18 140.665 123.01 150.425C137.211 139.565 150.113 123.296 148.882 109.441V109.441Z" fill="#424242"/>
<path d="M73.7303 64.6692C54.9695 25.92 54.8194 56.0697 51.667 86.8701C57.0625 77.9524 64.8037 69.9593 73.7303 64.6692V64.6692Z" fill="#F2F2F2"/>
<path d="M118.924 64.6692C137.685 25.92 137.835 56.0697 140.988 86.8701C135.592 77.9524 127.851 69.9593 118.924 64.6692V64.6692Z" fill="#F2F2F2"/>
<path d="M96.3269 121.082C96.3061 121.096 90.1463 129.838 78.9976 127.201C82.5005 144.022 110.353 142.98 113.268 127.289C102.392 129.672 96.3269 121.082 96.3269 121.082V121.082Z" fill="#AA0C18"/>
<path d="M85.3003 136.454C91.0597 140.733 102.479 139.944 106.958 136.454C98.198 128.191 90.7252 131.424 85.3003 136.454V136.454Z" fill="#EA6077"/>
<path d="M115.752 123.873C109.657 126.445 101.896 124.992 98.8431 119.742C105.328 118.366 110.282 107.493 101.526 105.81C77.9842 102.503 87.0752 118.414 93.821 119.742C86.7657 131.256 67.8029 118.322 75.0331 128.566C77.1492 128.704 77.4239 131.102 78.5509 132.921C86.3555 146.328 109.087 144.077 114.547 131.404C115.404 128.399 116.124 129.7 118.582 127.903C120.351 126.088 118.313 122.931 115.752 123.873V123.873ZM108.136 132.063C100.912 140.278 86.0983 137.047 82.8044 130.249C89.3001 130.385 93.8812 127.163 96.3371 124.843C98.7329 127.11 103.174 130.249 109.454 130.252C109.067 130.892 108.626 131.498 108.136 132.063V132.063ZM114.719 94.7246C99.0885 96.5888 107.462 115.762 111.363 101.438C112.328 100.25 113.548 99.69 115.3 99.817C116.748 100.024 117.939 100.935 118.636 102.384C122.409 115.321 129.672 95.8857 114.719 94.7246ZM77.9351 99.783C79.454 99.7513 81.2125 100.881 81.8426 102.392C85.642 115.332 92.8712 95.8668 77.9394 94.7299C62.3166 96.5643 70.6676 115.769 74.5848 101.449C75.3915 100.383 76.4633 99.9268 77.9351 99.783V99.783ZM151.385 109.222C148.044 80.0483 147.356 -4.32902 112.115 59.0213C98.2114 55.2776 85.3716 59.4332 80.1487 58.3137C72.9796 45.7259 66.1945 34.9295 57.2594 36.3997C44.6043 39.6385 43.4227 92.4055 42.1426 99.5674C33.8523 129.735 72.5962 163.294 96.3373 165.114C116.418 165.092 154.046 132.098 151.385 109.222V109.222ZM133.397 137.522C122.533 149.119 103.227 164.109 89.697 158.862C74.589 153.535 59.3507 139.735 51.9576 128.053C39.9273 110.619 48.9912 91.2727 63.5701 75.7681C65.6066 61.9941 49.0969 84.8019 48.2108 87.8122C53.8875 31.8671 58.3911 31.2756 75.7047 60.699C67.7976 63.8063 70.652 68.1291 73.8853 67.4273C80.8913 62.606 92.3951 62.2213 99.9751 62.5972C110.835 63.5517 110.729 63.1582 119.21 67.5565C125.386 66.525 120.339 61.7797 116.929 60.699C122.908 49.456 130.637 39.8337 134.378 41.3719C140.895 46.5547 143.583 79.7248 144.431 87.8122C128.674 60.9892 125.61 74.6486 131.117 77.902C147.798 97.5173 153.548 116.35 133.397 137.522Z" fill="black"/>
</svg>
