<svg width="192" height="192" viewBox="0 0 192 192" fill="none" xmlns="http://www.w3.org/2000/svg">
<path d="M192 0H0V192H192V0Z" fill="#91ACCF"/>
<path d="M57.2535 31.767C56.3115 31.5048 55.3028 31.8596 54.7429 32.6632C50.9501 38.1139 37.8945 60.4901 54.7958 90.3131L76.2244 48.4594C76.2244 48.4594 70.6309 35.4874 57.2535 31.767Z" fill="#424242"/>
<path d="M59.5275 46.4423C56.4064 53.3986 53.4307 66.4171 59.25 82.0883L69.7924 56.6847C69.4969 56.0187 66.591 49.6324 61.3147 45.9492C60.6982 45.5191 59.835 45.7546 59.5275 46.4423ZM69.7924 56.6847C69.7958 56.6944 69.801 56.7068 69.8047 56.7139L69.7924 56.6847Z" fill="#F2F2F2"/>
<path d="M56.003 61.6051C55.682 67.5567 56.4361 74.5118 59.2494 82.0883L69.7925 56.6847C69.5727 56.1901 67.9126 52.541 64.9126 49.1885C61.0872 53.2572 58.1877 57.5783 56.003 61.6051Z" fill="#F2F2F2"/>
<path d="M135.092 31.2116C136.099 30.9314 137.177 31.3106 137.776 32.1693C141.829 37.9943 155.781 61.9073 137.719 93.7785L114.818 49.05C114.818 49.05 120.796 35.1875 135.092 31.2116Z" fill="#424242"/>
<path d="M130.752 46.3688C125.113 50.3036 122.008 57.1286 121.693 57.8404L132.96 84.9889C139.178 68.2414 135.998 54.3285 132.662 46.8945C132.334 46.1599 131.411 45.9079 130.752 46.3688ZM121.693 57.8404L121.678 57.8715C121.683 57.8644 121.689 57.8509 121.693 57.8404Z" fill="#F2F2F2"/>
<path d="M126.907 49.8292C123.702 53.4123 121.927 57.312 121.693 57.8403L132.96 84.9888C135.966 76.8918 136.772 69.459 136.429 63.0993C134.093 58.7951 130.995 54.1773 126.907 49.8292Z" fill="#F2F2F2"/>
<path d="M43.1204 121.797C50.0129 138.076 64.8981 159.063 95.8116 159.063C126.726 159.063 141.611 138.074 148.504 121.794V107.597L125.767 75.9525H64.2572L43.1204 106.352V121.797Z" fill="#EEEDED"/>
<path d="M43.1204 121.797C43.8741 123.577 44.7231 125.413 45.6782 127.273C46.6352 129.133 47.6965 131.015 48.8751 132.886C57.2924 146.253 71.6601 159.063 95.8116 159.063C96.2286 159.063 96.6396 159.056 97.0499 159.049C97.4429 159.042 99.2324 158.974 99.7285 158.944C99.7502 158.942 99.7701 158.941 99.7904 158.941C71.5656 157.226 57.6677 137.361 51.0779 121.794C48.2181 115.048 46.7339 109.111 46.0484 105.813C46.0484 105.813 43.1204 121.794 43.1204 121.797Z" fill="#D3D3D3"/>
<path d="M120.298 53.4791C120.3 53.4716 120.302 53.4588 120.303 53.4491L120.298 53.4791Z" fill="#FF889E"/>
<path d="M71.3218 53.4491C71.3225 53.4588 71.324 53.4716 71.3267 53.4791L71.3218 53.4491Z" fill="#FF889E"/>
<path d="M152.708 105.813C152.023 109.111 151.363 115.048 148.504 121.794C146.494 111.778 139.897 106.444 135.233 103.852C132.264 102.205 130.068 99.4526 129.038 96.2212C127.164 90.3221 123.601 85.1977 116.88 85.1977C101.058 85.1977 102.735 113.591 102.735 113.591L95.8118 117.693L88.8897 113.591C88.8897 113.591 90.5663 85.1977 74.7466 85.1977C68.0232 85.1977 64.4607 90.3221 62.5861 96.2212C61.5567 99.4526 59.3588 102.205 56.3918 103.852C51.7276 106.444 45.1302 111.778 43.1206 121.794C40.2616 115.048 39.6016 109.111 38.9172 105.813C38.5729 104.156 39.0814 102.426 40.2451 101.317L44.0614 96.8849C45.5521 95.4644 46.5098 93.4859 46.7629 91.3301C48.9181 72.8831 65.2684 44.3981 95.8118 44.3981C126.355 44.3981 142.706 72.8831 144.862 91.3301C145.115 93.4859 146.073 95.4644 147.563 96.8849L151.38 101.317C152.543 102.426 153.052 104.156 152.708 105.813Z" fill="#424242"/>
<path d="M104.757 114.687C104.754 113.811 104.02 113.115 103.149 113.115H88.6065C87.7362 113.115 87 113.811 86.9985 114.687V114.703C86.9985 118.615 90.9735 121.788 95.8774 121.788C100.782 121.788 104.757 118.615 104.757 114.703C104.757 114.698 104.757 114.691 104.757 114.687Z" fill="black"/>
<path fill-rule="evenodd" clip-rule="evenodd" d="M74.402 97.3173C71.3971 97.3173 69.8919 99.6577 69.5229 101.873C69.3447 102.942 68.3337 103.664 67.2654 103.486C66.1966 103.308 65.4744 102.297 65.6525 101.228C66.1782 98.0744 68.6517 93.394 74.402 93.394C77.1856 93.394 79.2732 94.5382 80.6847 96.1574C82.0471 97.7204 82.7232 99.6517 82.9527 101.277C83.1039 102.349 82.3569 103.342 81.284 103.493C80.2111 103.644 79.2188 102.897 79.0673 101.824C78.9181 100.765 78.4794 99.5988 77.7271 98.7355C77.0236 97.9285 75.9965 97.3173 74.402 97.3173Z" fill="black"/>
<path fill-rule="evenodd" clip-rule="evenodd" d="M117.766 97.3173C114.762 97.3173 113.256 99.6577 112.887 101.873C112.709 102.942 111.698 103.664 110.629 103.486C109.561 103.308 108.839 102.297 109.017 101.228C109.543 98.0744 112.016 93.394 117.766 93.394C120.55 93.394 122.637 94.5382 124.049 96.1574C125.412 97.7204 126.088 99.6517 126.317 101.277C126.468 102.349 125.721 103.342 124.648 103.493C123.576 103.644 122.583 102.897 122.432 101.824C122.283 100.765 121.844 99.5988 121.091 98.7355C120.388 97.9285 119.361 97.3173 117.766 97.3173Z" fill="black"/>
<path d="M96 123.562C91.5 128.962 82.9999 128.688 79.3125 127.875C81.6251 131.625 88.2 139.125 96 139.125C105.75 139.125 108.938 133.875 111.938 127.875C104.062 128.812 101.062 127.125 96 123.562Z" fill="#9C2321"/>
<path d="M96.1875 131.906C92.5736 131.906 89.0633 134.349 87.4114 135.829C88.5814 136.38 91.9751 138.204 96.1875 138.204C100.4 138.204 103.449 136.105 104.447 135.416C102.967 134.418 99.8014 131.906 96.1875 131.906Z" fill="#D96879"/>
<path fill-rule="evenodd" clip-rule="evenodd" d="M94.024 120.823C94.0049 120.857 93.9857 120.891 93.9666 120.926C92.7797 123.052 91.5824 125.197 88.1147 125.622C84.4285 126.073 82.0337 125.656 79.6379 125.24C78.9512 125.121 78.2642 125.001 77.5469 124.902C76.5299 124.762 75.592 125.473 75.4517 126.489C75.3265 127.398 75.88 128.243 76.7245 128.513C79.1185 132.654 84.5597 142.024 95.9807 142.024C101.785 142.024 106.337 139.364 109.584 136.318C112.46 133.618 114.405 130.535 115.418 128.445C116.159 128.119 116.626 127.331 116.51 126.489C116.37 125.473 115.432 124.762 114.415 124.902C114.206 124.931 113.999 124.962 113.794 124.993C113.69 125.002 113.588 125.018 113.488 125.042C113.096 125.106 112.71 125.173 112.324 125.24C109.928 125.656 107.533 126.073 103.847 125.622C100.379 125.197 99.1817 123.052 97.9952 120.926C97.9757 120.891 97.9566 120.857 97.9375 120.823C97.8932 120.237 97.5726 119.682 97.0288 119.361C96.6996 119.167 96.3355 119.086 95.9807 119.106C95.6264 119.086 95.2619 119.167 94.933 119.361C94.3889 119.682 94.0686 120.237 94.024 120.823ZM110.397 129.306C108.478 129.545 106.21 129.655 103.395 129.311C99.5215 128.836 97.336 126.744 95.9807 124.806C94.6259 126.744 92.44 128.836 88.5662 129.311C85.8786 129.64 83.689 129.554 81.8252 129.338C84.5159 133.412 88.78 138.101 95.9807 138.101C100.501 138.101 104.14 136.046 106.899 133.456C108.34 132.105 109.508 130.635 110.397 129.306Z" fill="black"/>
</svg>
